{
	"asset":{
		"generator":"Khronos glTF Blender I/O v3.6.28",
		"version":"2.0"
	},
	"scene":0,
	"scenes":[
		{
			"name":"Scene",
			"nodes":[
				0
			]
		}
	],
	"nodes":[
		{
			"mesh":0,
			"name":"car",
			"scale":[
				0.10000002384185791,
				0.10000002384185791,
				0.10000002384185791
			]
		}
	],
	"materials":[
		{
			"doubleSided":true,
			"name":"Car",
			"pbrMetallicRoughness":{
				"baseColorTexture":{
					"index":0
				},
				"metallicFactor":0,
				"roughnessFactor":0.6766191720962524
			}
		},
		{
			"doubleSided":true,
			"name":"Windshield",
			"pbrMetallicRoughness":{
				"baseColorFactor":[
					0.33244699239730835,
					0.6399999856948853,
					0.6399999856948853,
					1
				],
				"roughnessFactor":0
			}
		}
	],
	"meshes":[
		{
			"name":"Cylinder.018_Cylinder.007",
			"primitives":[
				{
					"attributes":{
						"POSITION":0,
						"NORMAL":1,
						"TEXCOORD_0":2
					},
					"indices":3,
					"material":0
				},
				{
					"attributes":{
						"POSITION":4,
						"NORMAL":5,
						"TEXCOORD_0":6
					},
					"indices":7,
					"material":1
				}
			]
		}
	],
	"textures":[
		{
			"sampler":0,
			"source":0
		}
	],
	"images":[
		{
			"bufferView":4,
			"mimeType":"image/png",
			"name":"Color Palette"
		}
	],
	"accessors":[
		{
			"bufferView":0,
			"componentType":5126,
			"count":31997,
			"max":[
				6.178943157196045,
				10.889448165893555,
				16.666606903076172
			],
			"min":[
				-6.495461940765381,
				0.02567148208618164,
				-11.843842506408691
			],
			"type":"VEC3"
		},
		{
			"bufferView":1,
			"componentType":5126,
			"count":31997,
			"type":"VEC3"
		},
		{
			"bufferView":2,
			"componentType":5126,
			"count":31997,
			"type":"VEC2"
		},
		{
			"bufferView":3,
			"componentType":5123,
			"count":54726,
			"type":"SCALAR"
		},
		{
			"bufferView":5,
			"componentType":5126,
			"count":18,
			"max":[
				3.3968682289123535,
				9.334667205810547,
				2.184098243713379
			],
			"min":[
				-3.7072906494140625,
				6.6213860511779785,
				-8.85782527923584
			],
			"type":"VEC3"
		},
		{
			"bufferView":6,
			"componentType":5126,
			"count":18,
			"type":"VEC3"
		},
		{
			"bufferView":7,
			"componentType":5126,
			"count":18,
			"type":"VEC2"
		},
		{
			"bufferView":8,
			"componentType":5123,
			"count":30,
			"type":"SCALAR"
		}
	],
	"bufferViews":[
		{
			"buffer":0,
			"byteLength":383964,
			"byteOffset":0,
			"target":34962
		},
		{
			"buffer":0,
			"byteLength":383964,
			"byteOffset":383964,
			"target":34962
		},
		{
			"buffer":0,
			"byteLength":255976,
			"byteOffset":767928,
			"target":34962
		},
		{
			"buffer":0,
			"byteLength":109452,
			"byteOffset":1023904,
			"target":34963
		},
		{
			"buffer":0,
			"byteLength":1133,
			"byteOffset":1133356
		},
		{
			"buffer":0,
			"byteLength":216,
			"byteOffset":1134492,
			"target":34962
		},
		{
			"buffer":0,
			"byteLength":216,
			"byteOffset":1134708,
			"target":34962
		},
		{
			"buffer":0,
			"byteLength":144,
			"byteOffset":1134924,
			"target":34962
		},
		{
			"buffer":0,
			"byteLength":60,
			"byteOffset":1135068,
			"target":34963
		}
	],
	"samplers":[
		{
			"magFilter":9729,
			"minFilter":9987
		}
	],
	"buffers":[
		{
			"byteLength":1135128,
			"uri":"data:application/octet-stream;base64,"
		}
	]
}
