{
	"asset":{
		"generator":"Khronos glTF Blender I/O v3.5.30",
		"version":"2.0"
	},
	"scene":0,
	"scenes":[
		{
			"name":"Scene",
			"nodes":[
				0
			]
		}
	],
	"nodes":[
		{
			"mesh":0,
			"name":"Plane"
		}
	],
	"materials":[
		{
			"doubleSided":true,
			"name":"BASE",
			"pbrMetallicRoughness":{
				"baseColorFactor":[
					0.800000011920929,
					0.800000011920929,
					0.800000011920929,
					1
				],
				"metallicFactor":0,
				"roughnessFactor":0.5
			}
		},
		{
			"doubleSided":true,
			"name":"BUILDING",
			"pbrMetallicRoughness":{
				"baseColorFactor":[
					0.800000011920929,
					0.800000011920929,
					0.800000011920929,
					1
				],
				"metallicFactor":0,
				"roughnessFactor":0.5
			}
		}
	],
	"meshes":[
		{
			"name":"Plane",
			"primitives":[
				{
					"attributes":{
						"POSITION":0,
						"TEXCOORD_0":1,
						"NORMAL":2
					},
					"indices":3,
					"material":0
				},
				{
					"attributes":{
						"POSITION":4,
						"TEXCOORD_0":5,
						"NORMAL":6
					},
					"indices":7,
					"material":1
				}
			]
		}
	],
	"accessors":[
		{
			"bufferView":0,
			"componentType":5126,
			"count":1023,
			"max":[
				3.493129253387451,
				0.04455326125025749,
				3.1719329357147217
			],
			"min":[
				-4.418367385864258,
				0,
				-3.5032830238342285
			],
			"type":"VEC3"
		},
		{
			"bufferView":1,
			"componentType":5126,
			"count":1023,
			"type":"VEC2"
		},
		{
			"bufferView":2,
			"componentType":5126,
			"count":1023,
			"type":"VEC3"
		},
		{
			"bufferView":3,
			"componentType":5123,
			"count":2352,
			"type":"SCALAR"
		},
		{
			"bufferView":4,
			"componentType":5126,
			"count":485,
			"max":[
				3.2807250022888184,
				0.05695762857794762,
				2.260798454284668
			],
			"min":[
				-4.202503204345703,
				0.04455326125025749,
				-2.6028542518615723
			],
			"type":"VEC3"
		},
		{
			"bufferView":5,
			"componentType":5126,
			"count":485,
			"type":"VEC2"
		},
		{
			"bufferView":6,
			"componentType":5126,
			"count":485,
			"type":"VEC3"
		},
		{
			"bufferView":7,
			"componentType":5123,
			"count":711,
			"type":"SCALAR"
		}
	],
	"bufferViews":[
		{
			"buffer":0,
			"byteLength":12276,
			"byteOffset":0,
			"target":34962
		},
		{
			"buffer":0,
			"byteLength":8184,
			"byteOffset":12276,
			"target":34962
		},
		{
			"buffer":0,
			"byteLength":12276,
			"byteOffset":20460,
			"target":34962
		},
		{
			"buffer":0,
			"byteLength":4704,
			"byteOffset":32736,
			"target":34963
		},
		{
			"buffer":0,
			"byteLength":5820,
			"byteOffset":37440,
			"target":34962
		},
		{
			"buffer":0,
			"byteLength":3880,
			"byteOffset":43260,
			"target":34962
		},
		{
			"buffer":0,
			"byteLength":5820,
			"byteOffset":47140,
			"target":34962
		},
		{
			"buffer":0,
			"byteLength":1422,
			"byteOffset":52960,
			"target":34963
		}
	],
	"buffers":[
		{
			"byteLength":54384,
			"uri":"data:application/octet-stream;base64,"
		}
	]
}
